<mxfile host="app.diagrams.net" modified="2021-01-15T17:44:19.482Z" agent="5.0 (Windows NT 6.1; Win64; x64) AppleWebKit/537.36 (KHTML, like Gecko) Chrome/87.0.4280.141 Safari/537.36" etag="Ossj6YVCy-9u7Bx-SLaE" version="14.2.3" type="github">
  <diagram name="Page-1" id="e7e014a7-5840-1c2e-5031-d8a46d1fe8dd">
    <mxGraphModel dx="1038" dy="524" grid="1" gridSize="10" guides="1" tooltips="1" connect="1" arrows="1" fold="1" page="1" pageScale="1" pageWidth="1169" pageHeight="826" background="#ffffff" math="0" shadow="0">
      <root>
        <mxCell id="0" />
        <mxCell id="1" parent="0" />
        <mxCell id="w6DZIcDDy9iwqh8SUhIx-41" value="&lt;div style=&quot;box-sizing: border-box ; width: 100% ; background: #e4e4e4 ; padding: 2px&quot;&gt;Goal&lt;/div&gt;&lt;table style=&quot;width: 100% ; font-size: 1em&quot; cellpadding=&quot;2&quot; cellspacing=&quot;0&quot;&gt;&lt;tbody&gt;&lt;tr&gt;&lt;td&gt;PK&lt;/td&gt;&lt;td&gt;id_goal&lt;/td&gt;&lt;/tr&gt;&lt;tr&gt;&lt;td&gt;minuto&lt;br&gt;secondo&lt;br&gt;tipo&lt;/td&gt;&lt;td&gt;&lt;br&gt;&lt;/td&gt;&lt;/tr&gt;&lt;tr&gt;&lt;td&gt;&lt;/td&gt;&lt;td&gt;&lt;br&gt;&lt;/td&gt;&lt;/tr&gt;&lt;/tbody&gt;&lt;/table&gt;" style="verticalAlign=top;align=left;overflow=fill;html=1;fillColor=#fff2cc;strokeColor=#d6b656;" parent="1" vertex="1">
          <mxGeometry x="480" y="311" width="180" height="82" as="geometry" />
        </mxCell>
        <mxCell id="w6DZIcDDy9iwqh8SUhIx-52" style="edgeStyle=orthogonalEdgeStyle;rounded=0;orthogonalLoop=1;jettySize=auto;html=1;startArrow=oval;startFill=0;endArrow=ERmany;endFill=0;fillColor=#fff2cc;strokeColor=#d6b656;" parent="1" source="w6DZIcDDy9iwqh8SUhIx-42" target="w6DZIcDDy9iwqh8SUhIx-41" edge="1">
          <mxGeometry relative="1" as="geometry" />
        </mxCell>
        <mxCell id="w6DZIcDDy9iwqh8SUhIx-53" style="edgeStyle=orthogonalEdgeStyle;rounded=0;orthogonalLoop=1;jettySize=auto;html=1;startArrow=oval;startFill=0;endArrow=ERmany;endFill=0;fillColor=#fff2cc;strokeColor=#d6b656;" parent="1" source="w6DZIcDDy9iwqh8SUhIx-42" target="w6DZIcDDy9iwqh8SUhIx-47" edge="1">
          <mxGeometry relative="1" as="geometry">
            <mxPoint x="810" y="391" as="targetPoint" />
            <Array as="points">
              <mxPoint x="810" y="400" />
            </Array>
          </mxGeometry>
        </mxCell>
        <mxCell id="w6DZIcDDy9iwqh8SUhIx-54" style="edgeStyle=orthogonalEdgeStyle;rounded=0;orthogonalLoop=1;jettySize=auto;html=1;startArrow=ERmany;startFill=0;endArrow=ERmany;endFill=0;fillColor=#fff2cc;strokeColor=#d6b656;entryX=0.25;entryY=1;entryDx=0;entryDy=0;" parent="1" source="w6DZIcDDy9iwqh8SUhIx-42" target="w6DZIcDDy9iwqh8SUhIx-43" edge="1">
          <mxGeometry relative="1" as="geometry">
            <mxPoint x="488" y="236" as="targetPoint" />
            <Array as="points">
              <mxPoint x="260" y="343" />
              <mxPoint x="260" y="283" />
              <mxPoint x="488" y="283" />
              <mxPoint x="488" y="233" />
              <mxPoint x="515" y="233" />
            </Array>
          </mxGeometry>
        </mxCell>
        <mxCell id="w6DZIcDDy9iwqh8SUhIx-42" value="&lt;div style=&quot;box-sizing: border-box ; width: 100% ; background: #e4e4e4 ; padding: 2px&quot;&gt;Partita&lt;/div&gt;&lt;table style=&quot;width: 100% ; font-size: 1em&quot; cellpadding=&quot;2&quot; cellspacing=&quot;0&quot;&gt;&lt;tbody&gt;&lt;tr&gt;&lt;td&gt;PK&lt;/td&gt;&lt;td&gt;id_partita&lt;/td&gt;&lt;/tr&gt;&lt;tr&gt;&lt;td&gt;luogo&lt;br&gt;data&lt;br&gt;ora&lt;/td&gt;&lt;td&gt;&lt;br&gt;&lt;/td&gt;&lt;/tr&gt;&lt;tr&gt;&lt;td&gt;&lt;/td&gt;&lt;td&gt;&lt;br&gt;&lt;/td&gt;&lt;/tr&gt;&lt;/tbody&gt;&lt;/table&gt;" style="verticalAlign=top;align=left;overflow=fill;html=1;fillColor=#fff2cc;strokeColor=#d6b656;" parent="1" vertex="1">
          <mxGeometry x="60" y="323" width="170" height="90" as="geometry" />
        </mxCell>
        <mxCell id="w6DZIcDDy9iwqh8SUhIx-50" style="edgeStyle=orthogonalEdgeStyle;rounded=0;orthogonalLoop=1;jettySize=auto;html=1;endArrow=ERmany;endFill=0;startArrow=oval;startFill=0;fillColor=#fff2cc;strokeColor=#d6b656;" parent="1" source="w6DZIcDDy9iwqh8SUhIx-43" target="w6DZIcDDy9iwqh8SUhIx-47" edge="1">
          <mxGeometry relative="1" as="geometry" />
        </mxCell>
        <mxCell id="w6DZIcDDy9iwqh8SUhIx-51" style="edgeStyle=orthogonalEdgeStyle;rounded=0;orthogonalLoop=1;jettySize=auto;html=1;startArrow=oval;startFill=0;endArrow=ERmany;endFill=0;fillColor=#fff2cc;strokeColor=#d6b656;" parent="1" source="w6DZIcDDy9iwqh8SUhIx-43" target="w6DZIcDDy9iwqh8SUhIx-41" edge="1">
          <mxGeometry relative="1" as="geometry" />
        </mxCell>
        <mxCell id="w6DZIcDDy9iwqh8SUhIx-43" value="&lt;div style=&quot;box-sizing: border-box ; width: 100% ; background: #e4e4e4 ; padding: 2px&quot;&gt;Giocatore&lt;/div&gt;&lt;table style=&quot;width: 100% ; font-size: 1em&quot; cellpadding=&quot;2&quot; cellspacing=&quot;0&quot;&gt;&lt;tbody&gt;&lt;tr&gt;&lt;td&gt;PK&lt;/td&gt;&lt;td&gt;id_giocatore&lt;/td&gt;&lt;/tr&gt;&lt;tr&gt;&lt;td&gt;nome&lt;br&gt;cognome&lt;br&gt;ruolo&lt;br&gt;numero_maglia&lt;/td&gt;&lt;td&gt;&lt;br&gt;&lt;/td&gt;&lt;/tr&gt;&lt;tr&gt;&lt;td&gt;&lt;/td&gt;&lt;td&gt;&lt;br&gt;&lt;/td&gt;&lt;/tr&gt;&lt;/tbody&gt;&lt;/table&gt;" style="verticalAlign=top;align=left;overflow=fill;html=1;fillColor=#fff2cc;strokeColor=#d6b656;" parent="1" vertex="1">
          <mxGeometry x="470" y="113" width="180" height="100" as="geometry" />
        </mxCell>
        <mxCell id="w6DZIcDDy9iwqh8SUhIx-48" style="edgeStyle=orthogonalEdgeStyle;rounded=0;orthogonalLoop=1;jettySize=auto;html=1;endArrow=ERmany;endFill=0;fillColor=#fff2cc;strokeColor=#d6b656;" parent="1" source="w6DZIcDDy9iwqh8SUhIx-44" target="w6DZIcDDy9iwqh8SUhIx-43" edge="1">
          <mxGeometry relative="1" as="geometry">
            <Array as="points">
              <mxPoint x="300" y="163" />
              <mxPoint x="300" y="163" />
            </Array>
          </mxGeometry>
        </mxCell>
        <mxCell id="w6DZIcDDy9iwqh8SUhIx-55" style="edgeStyle=orthogonalEdgeStyle;rounded=0;orthogonalLoop=1;jettySize=auto;html=1;startArrow=none;startFill=0;endArrow=none;endFill=0;fillColor=#fff2cc;strokeColor=#d6b656;" parent="1" source="w6DZIcDDy9iwqh8SUhIx-44" target="w6DZIcDDy9iwqh8SUhIx-42" edge="1">
          <mxGeometry relative="1" as="geometry">
            <Array as="points">
              <mxPoint x="150" y="303" />
              <mxPoint x="150" y="303" />
            </Array>
          </mxGeometry>
        </mxCell>
        <mxCell id="w6DZIcDDy9iwqh8SUhIx-56" style="edgeStyle=orthogonalEdgeStyle;rounded=0;orthogonalLoop=1;jettySize=auto;html=1;entryX=0.25;entryY=0;entryDx=0;entryDy=0;startArrow=none;startFill=0;endArrow=none;endFill=0;fillColor=#fff2cc;strokeColor=#d6b656;" parent="1" source="w6DZIcDDy9iwqh8SUhIx-44" target="w6DZIcDDy9iwqh8SUhIx-42" edge="1">
          <mxGeometry relative="1" as="geometry">
            <Array as="points">
              <mxPoint x="103" y="273" />
            </Array>
          </mxGeometry>
        </mxCell>
        <mxCell id="w6DZIcDDy9iwqh8SUhIx-63" style="edgeStyle=orthogonalEdgeStyle;rounded=0;orthogonalLoop=1;jettySize=auto;html=1;entryX=0;entryY=0.75;entryDx=0;entryDy=0;startArrow=none;startFill=0;endArrow=oval;endFill=0;fillColor=#fff2cc;strokeColor=#d6b656;" parent="1" source="w6DZIcDDy9iwqh8SUhIx-44" target="w6DZIcDDy9iwqh8SUhIx-43" edge="1">
          <mxGeometry relative="1" as="geometry">
            <Array as="points">
              <mxPoint x="300" y="188" />
              <mxPoint x="300" y="188" />
            </Array>
          </mxGeometry>
        </mxCell>
        <mxCell id="w6DZIcDDy9iwqh8SUhIx-44" value="&lt;div style=&quot;box-sizing: border-box ; width: 100% ; background: #e4e4e4 ; padding: 2px&quot;&gt;Squadra&lt;/div&gt;&lt;table style=&quot;width: 100% ; font-size: 1em&quot; cellpadding=&quot;2&quot; cellspacing=&quot;0&quot;&gt;&lt;tbody&gt;&lt;tr&gt;&lt;td&gt;PK&lt;/td&gt;&lt;td&gt;id_squadra&lt;/td&gt;&lt;/tr&gt;&lt;tr&gt;&lt;td&gt;&lt;br&gt;nome_squadra&lt;/td&gt;&lt;td&gt;&lt;br&gt;&lt;/td&gt;&lt;/tr&gt;&lt;tr&gt;&lt;td&gt;&lt;/td&gt;&lt;td&gt;&lt;br&gt;&lt;/td&gt;&lt;/tr&gt;&lt;/tbody&gt;&lt;/table&gt;" style="verticalAlign=top;align=left;overflow=fill;html=1;fillColor=#fff2cc;strokeColor=#d6b656;" parent="1" vertex="1">
          <mxGeometry x="60" y="123" width="180" height="90" as="geometry" />
        </mxCell>
        <mxCell id="w6DZIcDDy9iwqh8SUhIx-47" value="&lt;div style=&quot;box-sizing: border-box ; width: 100% ; background: #e4e4e4 ; padding: 2px&quot;&gt;Sostituzione&lt;/div&gt;&lt;table style=&quot;width: 100% ; font-size: 1em&quot; cellpadding=&quot;2&quot; cellspacing=&quot;0&quot;&gt;&lt;tbody&gt;&lt;tr&gt;&lt;td&gt;PK&lt;/td&gt;&lt;td&gt;id_sostituzione&lt;/td&gt;&lt;/tr&gt;&lt;tr&gt;&lt;td&gt;minuto&lt;br&gt;durata&lt;/td&gt;&lt;td&gt;&lt;br&gt;&lt;/td&gt;&lt;/tr&gt;&lt;tr&gt;&lt;td&gt;&lt;/td&gt;&lt;td&gt;&lt;br&gt;&lt;/td&gt;&lt;/tr&gt;&lt;/tbody&gt;&lt;/table&gt;" style="verticalAlign=top;align=left;overflow=fill;html=1;fillColor=#fff2cc;strokeColor=#d6b656;" parent="1" vertex="1">
          <mxGeometry x="710" y="266" width="180" height="90" as="geometry" />
        </mxCell>
        <mxCell id="w6DZIcDDy9iwqh8SUhIx-57" value="partecipare" style="text;html=1;align=center;verticalAlign=middle;resizable=0;points=[];autosize=1;" parent="1" vertex="1">
          <mxGeometry x="660" y="138" width="80" height="20" as="geometry" />
        </mxCell>
        <mxCell id="w6DZIcDDy9iwqh8SUhIx-59" value="fare" style="text;html=1;align=center;verticalAlign=middle;resizable=0;points=[];autosize=1;" parent="1" vertex="1">
          <mxGeometry x="560" y="213" width="40" height="20" as="geometry" />
        </mxCell>
        <mxCell id="w6DZIcDDy9iwqh8SUhIx-60" value="Ã¨ convocato" style="text;html=1;align=center;verticalAlign=middle;resizable=0;points=[];autosize=1;" parent="1" vertex="1">
          <mxGeometry x="410" y="266" width="80" height="20" as="geometry" />
        </mxCell>
        <mxCell id="w6DZIcDDy9iwqh8SUhIx-61" value="gioca" style="text;html=1;align=center;verticalAlign=middle;resizable=0;points=[];autosize=1;" parent="1" vertex="1">
          <mxGeometry x="430" y="138" width="40" height="20" as="geometry" />
        </mxCell>
        <mxCell id="w6DZIcDDy9iwqh8SUhIx-62" value="allena" style="text;html=1;align=center;verticalAlign=middle;resizable=0;points=[];autosize=1;" parent="1" vertex="1">
          <mxGeometry x="420" y="193" width="50" height="20" as="geometry" />
        </mxCell>
        <mxCell id="w6DZIcDDy9iwqh8SUhIx-64" value="partecipa ospite" style="text;html=1;align=center;verticalAlign=middle;resizable=0;points=[];autosize=1;rotation=90;" parent="1" vertex="1">
          <mxGeometry x="110" y="246" width="100" height="20" as="geometry" />
        </mxCell>
        <mxCell id="w6DZIcDDy9iwqh8SUhIx-65" value="partecipa casa" style="text;html=1;align=center;verticalAlign=middle;resizable=0;points=[];autosize=1;rotation=90;" parent="1" vertex="1">
          <mxGeometry x="50" y="246" width="90" height="20" as="geometry" />
        </mxCell>
        <mxCell id="w6DZIcDDy9iwqh8SUhIx-66" value="&lt;font style=&quot;font-size: 16px&quot;&gt;&lt;b&gt;E/R CALCETTO&lt;/b&gt;&lt;/font&gt;" style="text;html=1;align=center;verticalAlign=middle;resizable=0;points=[];autosize=1;" parent="1" vertex="1">
          <mxGeometry x="40" y="60" width="130" height="20" as="geometry" />
        </mxCell>
        <mxCell id="w6DZIcDDy9iwqh8SUhIx-67" value="&lt;font style=&quot;font-size: 16px&quot;&gt;&lt;b&gt;MODELLO LOGICO&lt;/b&gt;&lt;/font&gt;" style="text;html=1;align=center;verticalAlign=middle;resizable=0;points=[];autosize=1;" parent="1" vertex="1">
          <mxGeometry x="25" y="510" width="160" height="20" as="geometry" />
        </mxCell>
        <mxCell id="w6DZIcDDy9iwqh8SUhIx-68" value="&lt;div style=&quot;box-sizing: border-box ; width: 100% ; background: #e4e4e4 ; padding: 2px&quot;&gt;Goal&lt;/div&gt;&lt;table style=&quot;width: 100% ; font-size: 1em&quot; cellpadding=&quot;2&quot; cellspacing=&quot;0&quot;&gt;&lt;tbody&gt;&lt;tr&gt;&lt;td&gt;PK&lt;/td&gt;&lt;td&gt;id_goal&lt;/td&gt;&lt;/tr&gt;&lt;tr&gt;&lt;td&gt;minuto&lt;br&gt;secondo&lt;br&gt;tipo&lt;br&gt;FK&amp;nbsp; &amp;nbsp; id_partita&lt;br&gt;&amp;nbsp; &amp;nbsp; &amp;nbsp; &amp;nbsp; id_giocatore&lt;/td&gt;&lt;td&gt;&lt;br&gt;&lt;/td&gt;&lt;/tr&gt;&lt;tr&gt;&lt;td&gt;&lt;/td&gt;&lt;td&gt;&lt;br&gt;&lt;/td&gt;&lt;/tr&gt;&lt;/tbody&gt;&lt;/table&gt;" style="verticalAlign=top;align=left;overflow=fill;html=1;fillColor=#fff2cc;strokeColor=#d6b656;" parent="1" vertex="1">
          <mxGeometry x="480" y="730" width="180" height="110" as="geometry" />
        </mxCell>
        <mxCell id="w6DZIcDDy9iwqh8SUhIx-69" style="edgeStyle=orthogonalEdgeStyle;rounded=0;orthogonalLoop=1;jettySize=auto;html=1;startArrow=oval;startFill=0;endArrow=ERmany;endFill=0;fillColor=#fff2cc;strokeColor=#d6b656;" parent="1" source="w6DZIcDDy9iwqh8SUhIx-72" target="w6DZIcDDy9iwqh8SUhIx-68" edge="1">
          <mxGeometry relative="1" as="geometry">
            <Array as="points">
              <mxPoint x="355" y="815" />
              <mxPoint x="355" y="800" />
            </Array>
          </mxGeometry>
        </mxCell>
        <mxCell id="w6DZIcDDy9iwqh8SUhIx-70" style="edgeStyle=orthogonalEdgeStyle;rounded=0;orthogonalLoop=1;jettySize=auto;html=1;startArrow=oval;startFill=0;endArrow=ERmany;endFill=0;fillColor=#fff2cc;strokeColor=#d6b656;" parent="1" source="w6DZIcDDy9iwqh8SUhIx-72" target="w6DZIcDDy9iwqh8SUhIx-81" edge="1">
          <mxGeometry relative="1" as="geometry">
            <mxPoint x="810" y="838" as="targetPoint" />
            <Array as="points">
              <mxPoint x="810" y="850" />
            </Array>
          </mxGeometry>
        </mxCell>
        <mxCell id="w6DZIcDDy9iwqh8SUhIx-92" style="edgeStyle=orthogonalEdgeStyle;rounded=0;orthogonalLoop=1;jettySize=auto;html=1;startArrow=none;startFill=0;endArrow=ERmany;endFill=0;fillColor=#fff2cc;strokeColor=#d6b656;" parent="1" source="w6DZIcDDy9iwqh8SUhIx-72" edge="1">
          <mxGeometry relative="1" as="geometry">
            <mxPoint x="298" y="740" as="targetPoint" />
            <Array as="points">
              <mxPoint x="260" y="790" />
              <mxPoint x="260" y="740" />
            </Array>
          </mxGeometry>
        </mxCell>
        <mxCell id="w6DZIcDDy9iwqh8SUhIx-72" value="&lt;div style=&quot;box-sizing: border-box ; width: 100% ; background: #e4e4e4 ; padding: 2px&quot;&gt;Partite&lt;/div&gt;&lt;table style=&quot;width: 100% ; font-size: 1em&quot; cellpadding=&quot;2&quot; cellspacing=&quot;0&quot;&gt;&lt;tbody&gt;&lt;tr&gt;&lt;td&gt;PK&lt;/td&gt;&lt;td&gt;id_partita&lt;/td&gt;&lt;/tr&gt;&lt;tr&gt;&lt;td&gt;luogo&lt;br&gt;data&lt;br&gt;ora&lt;/td&gt;&lt;td&gt;&lt;br&gt;&lt;/td&gt;&lt;/tr&gt;&lt;tr&gt;&lt;td&gt;&lt;/td&gt;&lt;td&gt;&lt;br&gt;&lt;/td&gt;&lt;/tr&gt;&lt;/tbody&gt;&lt;/table&gt;" style="verticalAlign=top;align=left;overflow=fill;html=1;fillColor=#fff2cc;strokeColor=#d6b656;" parent="1" vertex="1">
          <mxGeometry x="60" y="770" width="170" height="90" as="geometry" />
        </mxCell>
        <mxCell id="w6DZIcDDy9iwqh8SUhIx-73" style="edgeStyle=orthogonalEdgeStyle;rounded=0;orthogonalLoop=1;jettySize=auto;html=1;endArrow=ERmany;endFill=0;startArrow=oval;startFill=0;fillColor=#fff2cc;strokeColor=#d6b656;" parent="1" source="w6DZIcDDy9iwqh8SUhIx-75" target="w6DZIcDDy9iwqh8SUhIx-81" edge="1">
          <mxGeometry relative="1" as="geometry" />
        </mxCell>
        <mxCell id="w6DZIcDDy9iwqh8SUhIx-74" style="edgeStyle=orthogonalEdgeStyle;rounded=0;orthogonalLoop=1;jettySize=auto;html=1;startArrow=oval;startFill=0;endArrow=ERmany;endFill=0;fillColor=#fff2cc;strokeColor=#d6b656;" parent="1" source="w6DZIcDDy9iwqh8SUhIx-75" target="w6DZIcDDy9iwqh8SUhIx-68" edge="1">
          <mxGeometry relative="1" as="geometry" />
        </mxCell>
        <mxCell id="w6DZIcDDy9iwqh8SUhIx-75" value="&lt;div style=&quot;box-sizing: border-box ; width: 100% ; background: #e4e4e4 ; padding: 2px&quot;&gt;Giocatori&lt;/div&gt;&lt;table style=&quot;width: 100% ; font-size: 1em&quot; cellpadding=&quot;2&quot; cellspacing=&quot;0&quot;&gt;&lt;tbody&gt;&lt;tr&gt;&lt;td&gt;PK&lt;/td&gt;&lt;td&gt;id_giocatore&lt;/td&gt;&lt;/tr&gt;&lt;tr&gt;&lt;td&gt;nome&lt;br&gt;cognome&lt;br&gt;ruolo&lt;br&gt;numero_maglia&lt;br&gt;FK&amp;nbsp; &amp;nbsp; &amp;nbsp;id_squadra&amp;nbsp;&lt;br&gt;&amp;nbsp; &amp;nbsp; &amp;nbsp; &amp;nbsp; &amp;nbsp; id_partita&lt;/td&gt;&lt;td&gt;&lt;br&gt;&lt;/td&gt;&lt;/tr&gt;&lt;tr&gt;&lt;td&gt;&lt;/td&gt;&lt;td&gt;&lt;br&gt;&lt;/td&gt;&lt;/tr&gt;&lt;/tbody&gt;&lt;/table&gt;" style="verticalAlign=top;align=left;overflow=fill;html=1;fillColor=#fff2cc;strokeColor=#d6b656;" parent="1" vertex="1">
          <mxGeometry x="470" y="510" width="180" height="130" as="geometry" />
        </mxCell>
        <mxCell id="w6DZIcDDy9iwqh8SUhIx-76" style="edgeStyle=orthogonalEdgeStyle;rounded=0;orthogonalLoop=1;jettySize=auto;html=1;endArrow=ERmany;endFill=0;fillColor=#fff2cc;strokeColor=#d6b656;" parent="1" source="w6DZIcDDy9iwqh8SUhIx-80" target="w6DZIcDDy9iwqh8SUhIx-75" edge="1">
          <mxGeometry relative="1" as="geometry">
            <Array as="points">
              <mxPoint x="360" y="580" />
              <mxPoint x="360" y="580" />
            </Array>
          </mxGeometry>
        </mxCell>
        <mxCell id="w6DZIcDDy9iwqh8SUhIx-77" style="edgeStyle=orthogonalEdgeStyle;rounded=0;orthogonalLoop=1;jettySize=auto;html=1;startArrow=none;startFill=0;endArrow=none;endFill=0;fillColor=#fff2cc;strokeColor=#d6b656;" parent="1" source="w6DZIcDDy9iwqh8SUhIx-80" target="w6DZIcDDy9iwqh8SUhIx-72" edge="1">
          <mxGeometry relative="1" as="geometry">
            <Array as="points">
              <mxPoint x="150" y="750" />
              <mxPoint x="150" y="750" />
            </Array>
          </mxGeometry>
        </mxCell>
        <mxCell id="w6DZIcDDy9iwqh8SUhIx-78" style="edgeStyle=orthogonalEdgeStyle;rounded=0;orthogonalLoop=1;jettySize=auto;html=1;entryX=0.25;entryY=0;entryDx=0;entryDy=0;startArrow=none;startFill=0;endArrow=none;endFill=0;fillColor=#fff2cc;strokeColor=#d6b656;" parent="1" source="w6DZIcDDy9iwqh8SUhIx-80" target="w6DZIcDDy9iwqh8SUhIx-72" edge="1">
          <mxGeometry relative="1" as="geometry">
            <Array as="points">
              <mxPoint x="103" y="720" />
            </Array>
          </mxGeometry>
        </mxCell>
        <mxCell id="w6DZIcDDy9iwqh8SUhIx-79" style="edgeStyle=orthogonalEdgeStyle;rounded=0;orthogonalLoop=1;jettySize=auto;html=1;startArrow=none;startFill=0;endArrow=oval;endFill=0;fillColor=#fff2cc;strokeColor=#d6b656;entryX=0;entryY=0.876;entryDx=0;entryDy=0;entryPerimeter=0;" parent="1" source="w6DZIcDDy9iwqh8SUhIx-80" target="w6DZIcDDy9iwqh8SUhIx-75" edge="1">
          <mxGeometry relative="1" as="geometry">
            <mxPoint x="460" y="630" as="targetPoint" />
            <Array as="points">
              <mxPoint x="470" y="630" />
            </Array>
          </mxGeometry>
        </mxCell>
        <mxCell id="w6DZIcDDy9iwqh8SUhIx-80" value="&lt;div style=&quot;box-sizing: border-box ; width: 100% ; background: #e4e4e4 ; padding: 2px&quot;&gt;Squadre&lt;/div&gt;&lt;table style=&quot;width: 100% ; font-size: 1em&quot; cellpadding=&quot;2&quot; cellspacing=&quot;0&quot;&gt;&lt;tbody&gt;&lt;tr&gt;&lt;td&gt;PK&lt;/td&gt;&lt;td&gt;id_squadra&lt;/td&gt;&lt;/tr&gt;&lt;tr&gt;&lt;td&gt;&lt;br&gt;nome_squadra&lt;/td&gt;&lt;td&gt;&lt;br&gt;&lt;/td&gt;&lt;/tr&gt;&lt;tr&gt;&lt;td&gt;&lt;/td&gt;&lt;td&gt;&lt;br&gt;&lt;/td&gt;&lt;/tr&gt;&lt;/tbody&gt;&lt;/table&gt;" style="verticalAlign=top;align=left;overflow=fill;html=1;fillColor=#fff2cc;strokeColor=#d6b656;" parent="1" vertex="1">
          <mxGeometry x="60" y="570" width="180" height="90" as="geometry" />
        </mxCell>
        <mxCell id="w6DZIcDDy9iwqh8SUhIx-81" value="&lt;div style=&quot;box-sizing: border-box ; width: 100% ; background: #e4e4e4 ; padding: 2px&quot;&gt;Sostituzioni&lt;/div&gt;&lt;table style=&quot;width: 100% ; font-size: 1em&quot; cellpadding=&quot;2&quot; cellspacing=&quot;0&quot;&gt;&lt;tbody&gt;&lt;tr&gt;&lt;td&gt;PK&amp;nbsp; &amp;nbsp; &amp;nbsp; &amp;nbsp;id_sostituzione&lt;/td&gt;&lt;td&gt;&lt;br&gt;&lt;/td&gt;&lt;/tr&gt;&lt;tr&gt;&lt;td&gt;minuto&lt;br&gt;durata&lt;/td&gt;&lt;td&gt;&lt;br&gt;&lt;/td&gt;&lt;/tr&gt;&lt;tr&gt;&lt;td&gt;FK&amp;nbsp; &amp;nbsp; &amp;nbsp; &amp;nbsp; id_giocatore&lt;br&gt;&amp;nbsp; &amp;nbsp; &amp;nbsp; &amp;nbsp; &amp;nbsp; &amp;nbsp; &amp;nbsp;id_partita&lt;/td&gt;&lt;td&gt;&lt;br&gt;&lt;/td&gt;&lt;/tr&gt;&lt;/tbody&gt;&lt;/table&gt;" style="verticalAlign=top;align=left;overflow=fill;html=1;fillColor=#fff2cc;strokeColor=#d6b656;" parent="1" vertex="1">
          <mxGeometry x="710" y="700" width="180" height="103" as="geometry" />
        </mxCell>
        <mxCell id="w6DZIcDDy9iwqh8SUhIx-82" value="partecipare" style="text;html=1;align=center;verticalAlign=middle;resizable=0;points=[];autosize=1;" parent="1" vertex="1">
          <mxGeometry x="650" y="550" width="80" height="20" as="geometry" />
        </mxCell>
        <mxCell id="w6DZIcDDy9iwqh8SUhIx-83" value="fare" style="text;html=1;align=center;verticalAlign=middle;resizable=0;points=[];autosize=1;" parent="1" vertex="1">
          <mxGeometry x="560" y="650" width="40" height="20" as="geometry" />
        </mxCell>
        <mxCell id="w6DZIcDDy9iwqh8SUhIx-85" value="gioca" style="text;html=1;align=center;verticalAlign=middle;resizable=0;points=[];autosize=1;" parent="1" vertex="1">
          <mxGeometry x="425" y="550" width="40" height="20" as="geometry" />
        </mxCell>
        <mxCell id="w6DZIcDDy9iwqh8SUhIx-86" value="allena" style="text;html=1;align=center;verticalAlign=middle;resizable=0;points=[];autosize=1;" parent="1" vertex="1">
          <mxGeometry x="410" y="605" width="50" height="20" as="geometry" />
        </mxCell>
        <mxCell id="w6DZIcDDy9iwqh8SUhIx-87" value="partecipa ospite" style="text;html=1;align=center;verticalAlign=middle;resizable=0;points=[];autosize=1;rotation=90;" parent="1" vertex="1">
          <mxGeometry x="110" y="693" width="100" height="20" as="geometry" />
        </mxCell>
        <mxCell id="w6DZIcDDy9iwqh8SUhIx-88" value="partecipa casa" style="text;html=1;align=center;verticalAlign=middle;resizable=0;points=[];autosize=1;rotation=90;" parent="1" vertex="1">
          <mxGeometry x="50" y="693" width="90" height="20" as="geometry" />
        </mxCell>
        <mxCell id="w6DZIcDDy9iwqh8SUhIx-93" style="edgeStyle=orthogonalEdgeStyle;rounded=0;orthogonalLoop=1;jettySize=auto;html=1;entryX=0.25;entryY=1;entryDx=0;entryDy=0;startArrow=ERmany;startFill=0;endArrow=none;endFill=0;fillColor=#fff2cc;strokeColor=#d6b656;" parent="1" source="w6DZIcDDy9iwqh8SUhIx-91" target="w6DZIcDDy9iwqh8SUhIx-75" edge="1">
          <mxGeometry relative="1" as="geometry" />
        </mxCell>
        <mxCell id="w6DZIcDDy9iwqh8SUhIx-91" value="&lt;div style=&quot;box-sizing: border-box ; width: 100% ; background: #e4e4e4 ; padding: 2px&quot;&gt;&lt;br&gt;&lt;/div&gt;&lt;table style=&quot;width: 100% ; font-size: 1em&quot; cellpadding=&quot;2&quot; cellspacing=&quot;0&quot;&gt;&lt;tbody&gt;&lt;tr&gt;&lt;td&gt;PK&lt;/td&gt;&lt;td&gt;&lt;br&gt;&lt;/td&gt;&lt;/tr&gt;&lt;tr&gt;&lt;td&gt;FK&lt;/td&gt;&lt;td&gt;id_giocatore&lt;/td&gt;&lt;/tr&gt;&lt;tr&gt;&lt;td&gt;&lt;/td&gt;&lt;td&gt;id_partita&lt;/td&gt;&lt;/tr&gt;&lt;/tbody&gt;&lt;/table&gt;" style="verticalAlign=top;align=left;overflow=fill;html=1;fillColor=#dae8fc;strokeColor=#6c8ebf;" parent="1" vertex="1">
          <mxGeometry x="300" y="670" width="150" height="90" as="geometry" />
        </mxCell>
      </root>
    </mxGraphModel>
  </diagram>
</mxfile>
